<svg xmlns="http://www.w3.org/2000/svg" viewBox="0 0 512 512" fill="none">
  <defs>
    <linearGradient id="bg" x1="0" y1="0" x2="512" y2="512" gradientUnits="userSpaceOnUse">
      <stop offset="0%" stop-color="#6366F1"/>
      <stop offset="50%" stop-color="#8B5CF6"/>
      <stop offset="100%" stop-color="#A78BFA"/>
    </linearGradient>
    <linearGradient id="shine" x1="0" y1="0" x2="256" y2="256" gradientUnits="userSpaceOnUse">
      <stop offset="0%" stop-color="#FFFFFF" stop-opacity="0.15"/>
      <stop offset="100%" stop-color="#FFFFFF" stop-opacity="0"/>
    </linearGradient>
  </defs>
  <!-- Rounded square background -->
  <rect x="16" y="16" width="480" height="480" rx="112" fill="url(#bg)"/>
  <!-- Subtle glass shine -->
  <rect x="16" y="16" width="480" height="240" rx="112" fill="url(#shine)"/>
  <!-- Stylized C that forms a capture/record symbol -->
  <!-- Outer C arc -->
  <path d="M310 148C310 148 370 148 370 148C362 112 330 88 278 88C204 88 148 152 148 256C148 360 204 424 278 424C330 424 362 400 370 364L310 364C302 384 290 396 270 396C228 396 204 340 204 256C204 172 228 116 270 116C290 116 302 128 310 148Z"
        fill="white" opacity="0.95"/>
  <!-- Record dot — the differentiator -->
  <circle cx="370" cy="256" r="52" fill="white" opacity="0.95"/>
  <!-- Inner dot with gradient color -->
  <circle cx="370" cy="256" r="30" fill="#EF4444"/>
</svg>
