<svg xmlns="http://www.w3.org/2000/svg" viewBox="0 0 280 64" fill="none">
  <defs>
    <linearGradient id="bgw" x1="0" y1="0" x2="64" y2="64" gradientUnits="userSpaceOnUse">
      <stop offset="0%" stop-color="#6366F1"/>
      <stop offset="50%" stop-color="#8B5CF6"/>
      <stop offset="100%" stop-color="#A78BFA"/>
    </linearGradient>
  </defs>
  <!-- Icon mark (small) -->
  <rect x="0" y="0" width="64" height="64" rx="16" fill="url(#bgw)"/>
  <!-- C shape -->
  <path d="M38.5 19C38.5 19 44 19 44 19C43 15 39.5 12 33 12C24 12 19 20 19 32C19 44 24 52 33 52C39.5 52 43 49 44 45L38.5 45C37.5 47.5 36 49 33.5 49C28.5 49 26 43 26 32C26 21 28.5 15 33.5 15C36 15 37.5 17 38.5 19Z"
        fill="white" opacity="0.95"/>
  <!-- Record dot -->
  <circle cx="44" cy="32" r="6.5" fill="white" opacity="0.95"/>
  <circle cx="44" cy="32" r="3.8" fill="#EF4444"/>
  <!-- Wordmark -->
  <text x="80" y="44" font-family="Inter, -apple-system, BlinkMacSystemFont, sans-serif" font-size="32" font-weight="700" letter-spacing="-0.02em" fill="#0F172A">chingu</text>
</svg>
